<?xml version="1.0" encoding="utf-8"?>
<!-- Generator: Adobe Illustrator 17.1.0, SVG Export Plug-In . SVG Version: 6.00 Build 0)  -->
<!DOCTYPE svg PUBLIC "-//W3C//DTD SVG 1.1//EN" "http://www.w3.org/Graphics/SVG/1.1/DTD/svg11.dtd">
<svg version="1.1" id="Слой_1" xmlns="http://www.w3.org/2000/svg" xmlns:xlink="http://www.w3.org/1999/xlink" x="0px" y="0px"
	 viewBox="0 0 586 596.9" enable-background="new 0 0 586 596.9" xml:space="preserve">
<g>
	<path d="M262.4,69.7c-1.9-3.3-3.5-7.2-6.5-9.8c-1.8-1.5-3.6-1.9-5.9-2c-0.7,0-5.6,0.8-5.9,0.4c0,0-2.9-4.3-2.9-4.3
		c-1.1-1.6-3.1-2.6-5.2-2.5l-20.5,1.1L191.1,4.3c-1.4-2.7-3.9-4.4-6.4-4.3c-0.7,0-1.3,0.2-2,0.5c-2.9,1.5-3.8,5.4-2,9l20.8,44
		l-19.4,1.1c-2.2,0.1-4.1,1.4-5,3.3l-2,4.3c-2.7,0.1-5.4,0.1-8.1,0.4c-3.8,0.5-5.5,3.7-6.8,7.1c-0.7,1.9-1.5,3.9-2.2,5.8
		c-0.5,1.2-0.3,2.6,0.5,3.6c0.8,1.2,2.2,1.8,3.7,1.7l3.2-0.2l23.1,120.6c0.9,4.6,5.1,7.9,9.8,7.6l36.8-2c4.6-0.3,8.5-3.9,8.9-8.6
		l11.4-122.6l3.4-0.2c1.5-0.1,2.9-0.9,3.6-2.2C263.1,72.2,263.1,70.8,262.4,69.7z"/>
</g>
<path fill="#FFFFFF" d="M251.3,61.6c-4.2-0.1-8.6,0.6-12.8,0.6c-3.9,0-7.9,0.3-11.7-0.2c-0.3,0-0.4-0.4-0.1-0.6
	c2.3-1,4.7-1.6,7.2-1.9c1.1-0.1,8.1-0.2,5.4-2.9c-1.4-1.4-2.7-1.5-4.6-1.4c-2.9,0.1-5.9,0.3-8.8,0.5c-8.8,0.5-17.5,1-26.3,1.4
	c-4.9,0.3-9.8,0.5-14.7,0.8c-1.4,0.1-3.4,0.3-3.6,1.8c-0.2,1.3,0.9,2.4,2.1,2.5c1.9,0.2,3.9-0.1,5.8-0.1c3.9,0,7.9-0.3,11.7,0.2
	c0.3,0,0.4,0.4,0.1,0.6c-4.8,2.2-10.4,2.3-15.6,2.5c-5.4,0.1-10.8,0.2-16.2,0.5c-2.2,0.1-3,0.3-4.2,2.2c-1.2,1.8-2.3,4.3-2.2,6.5
	c0.2,3.2,4.2,2.2,6.3,2.1c4.2-0.2,8.3-0.5,12.5-0.7c15.8-0.9,31.5-1.7,47.3-2.6c5.6-0.3,11.3-0.6,16.9-0.9c2.8-0.2,5.6-0.3,8.5-0.5
	c1.7-0.1,3.2-0.3,3.8-1.4c0.3-0.5,0.3-1.3,0.1-2.3C257.4,64.9,255.2,61.7,251.3,61.6z"/>
<path fill="#E02230" d="M181,136.9c2-0.1,4.5,0.2,5.3,0.2c3.9,0.1,7.7-0.1,11.5-0.8c6.9-1.3,13.6-3.2,19.9-6.3
	c12.9-6.3,23-15.6,31.2-27.3c0.1-0.1,0.2-0.2,0.3-0.3l2.4-26.6l-82.1,4.5L181,136.9z M177.8,86.6c2.4,6.3,3.1,13.5,4.4,20.1
	c1,5.3,2.9,10.7,2.8,16.1c0,1.3-1.7,1.6-2.2,0.4c-2.3-5.6-2.5-12.3-3.6-18.3c-1.1-5.9-2.8-12-2.8-18
	C176.4,86.1,177.5,85.8,177.8,86.6z"/>
<path fill="#E02230" d="M212.2,52.8l-23.7-47c-1.9-3.7-5.5-1.4-3.9,2c0.2,0.3,21.5,45.4,21.5,45.4L212.2,52.8z"/>
<path fill="#E02230" d="M201.2,177.5c-4.5-0.6-8.4-2.2-12.8-3.3l0,0l5.2,26.1c0.5,2.9,2,5.1,4.9,4.9l36.5-2c2.8-0.2,5.2-2.4,5.4-5.3
	l2.7-29c-8.5,5.3-18.5,8.4-28.5,8.9C210.2,178.1,205.7,178.1,201.2,177.5z M196.7,190.3c-0.2-1.2-1.8-8.9,0.7-7.5
	c0.8,0.4,1.7,4.2,2,5.2c1.3,3.5,2.9,7.7,3.6,11.6C198.5,202.7,197.3,193.8,196.7,190.3z"/>
<path fill="#FFFFFF" d="M218.8,133c-6.6,3-13.6,5.5-20.7,6.4c-3.3,0.4-6.7,1-10.1,1.1c-1.3,0-4.1,0.2-6.3-0.2l6.1,30.5
	c4.1,0.8,7.9,2.4,12.1,3c4.9,0.7,9.8,1,14.7,0.5c10.7-1.1,20.1-4.8,29.1-10.5c0,0,0,0,0,0l5.1-55.4
	C241.3,119.1,230.5,127.7,218.8,133z M227.7,157.8c-2.9,4.1-7,7.1-11.1,9.9c-0.4,0.3-5.8-2.9-6.4-3.3c-1.8-1.2-3.7-2.5-5.4-3.8
	c-3.9-3.2-6.9-8.8-3.5-13.6c1.3-1.9,3.8-2.6,6.1-2.3c3,0.4,5.7,2.1,7.4,4.5c1.3-2.1,3.1-3.9,5.4-4.8c2.3-0.9,4.9-0.9,7.1,0.3
	c1,0.6,1.7,1.3,2.2,2.1C231.4,150,229.8,154.7,227.7,157.8z"/>
<g>
	<path d="M480.5,487.5c-0.1-0.4-0.4-0.8-0.7-1.2c-1.4-1.8-4.6-4.1-7.5-5.2c0.4-0.9,0.7-1.8,0.9-2.5c1-2.5,2-5,3-7.4
		c2-5,4.1-9.9,6.1-14.9c0.3-0.8,0.6-1.6,0.6-2.4c0-0.4-0.1-0.7-0.2-1c-0.6-1.2-2.4-1.6-3.5-2.1c-1.6-0.7-3.2-1.4-4.8-2
		c-2.4-0.9-4.9-1.7-7.4-2.5c-0.4-0.1-0.9-0.4-1.4-0.5c0.6-2.3,1.2-4.6,1.7-6.9c0.1-0.6,0.3-1.1,0.2-1.7c-0.1-0.5-0.3-0.8-0.7-1.2
		c-1-0.9-2.3-1.4-3.5-1.9c-1.5-0.7-3-1.3-4.6-2c-3-1.2-6.1-2.4-9.2-3.4c-1.2-0.4-2.5-0.7-3.8-0.9c-0.9-0.2-1.8-0.1-2.5,0.6
		c-0.5,0.5-0.6,1.2-0.8,1.9c-0.4,2.3-0.6,4.5-0.9,6.7c0,0.1,0,0.2,0,0.3c-0.5-0.1-1-0.2-1.4-0.3c-1.7-0.4-3.5-0.9-5.2-1.3
		c-3.5-0.9-7-1.7-10.5-2.6c-0.5-0.1-1.1-0.2-1.6-0.2c-0.2-7.3-0.4-14.6-0.6-22c-2.5-0.1-5-0.1-7.5-0.1c-3.6-0.1-7.2,0.1-10.8,0.3
		c-1.3,0.1-3.5-0.4-4,1.2c-0.2,0.5-0.2,1-0.1,1.6c0.2,4.8,0.3,9.5,0.5,14.3c-2-0.2-4.7,0.3-5.6,0.4c-4,0.3-7.9,0.8-11.8,1.5
		c-1.4,0.2-2.1,0.4-2.1,1.9c0.1,1.6,0.3,3.3,0.4,4.9c0.1,0.7,0.1,1.5,0.2,2.2c-0.5-0.1-1.1,0-1.6,0.1c-2.2,0.4-4.3,0.8-6.5,1.1
		c-2.4,0.4-6.5,0.2-7.2,3.3c-0.2,0.8-0.1,1.6,0,2.4c1,7.8,2.2,15.5,3.3,23.3c-2.4,0.3-4.7,0.8-7,1.4c-3.4,1-5.1,1.8-5,5.9
		c0.1,1.7,0.4,3.5,0.4,5.2c0.1,2.7,0.2,5.3,0.4,8c0.6,10.9,1.6,21.8,2.6,32.7c0.7,8.2,1.5,16.3,2.6,24.4c0.6,4.9,1.1,9.9,1.9,14.8
		c0.5,3,0.6,6.4,2.4,9c2.3,3.2,6.1,2.7,9.6,2.7c4.8,0,9.6-1,14.5-1.1c5.1-0.1,10.2,0.3,15.2,1.1c7.5,1.2,14.8,3.3,22.1,5.3
		c3.3,0.9,6.6,2,10,3c2,0.6,5.3,1.4,6.9-0.6c2.1-2.6,2.8-7.4,3.9-10.5c1.4-4.1,2.6-8.3,4-12.5c2.5-7.6,5.3-15.1,8-22.5
		c3.4-9.3,7.1-18.5,11-27.6c1.9-4.6,3.9-9.1,5.8-13.7C479.5,492,481.1,489.5,480.5,487.5z"/>
</g>
<path fill="#E6E139" d="M374.6,469.3c1.7,1,2,3.3,2.8,5c1.2,2.4,2.2,5,3.5,7.4c1.8,3,3.7,6,5.9,8.7c-1.2-9.2-2-18.6-2.8-27.9
	c-0.6-7.1-1.2-14.1-1.9-21.1c-0.3,0.1-0.7,0.2-1,0.3c-1.9,0.3-3.9,0.6-5.8,1c-1.3,0.2-3.6,0-4.6,1.1c-1.2,1.4-0.4,4.2-0.2,5.8
	c0.3,2.4,0.6,4.8,0.8,7.2c0.5,4,0.9,8.1,1.4,12.1C373.4,468.9,374,469,374.6,469.3z"/>
<path fill="#E6E139" d="M386.4,447.3c0.4,4.8,0.8,9.8,1.3,14.6c0.7,6.2,1.5,12.4,2.3,18.7c0.4,3.1,0.8,6.1,1.1,9.2
	c0.3,2.8,0,5.1,2.3,7c3.2,2.6,6.6,4.7,10.4,6.3c-1.1-15.3-1.5-30.7-2.1-46.1c-0.3-8.4-0.6-16.7-0.9-25.1c-0.6,0-1.1,0-1.7,0.1
	c-2.2,0.2-4.5,0.3-6.7,0.5c-1.8,0.1-3.7,0.1-5.5,0.3c-0.6,0.1-1.2,0.4-1.5,0.9c-0.3,0.5-0.2,1.2-0.1,1.8
	C385.8,439.4,386.1,443.3,386.4,447.3z"/>
<path fill="#E6E139" d="M408.5,504.7c2.3,0.7,4.8,1.2,7.2,1.5c1.5,0.2,2.6,0.3,4,0.4c-0.3-15.5-0.4-31-0.4-46.5
	c0-14.9-1.4-30.3-0.6-45.2c-1,0-14.6-0.4-14.6,0c0.3,14.5,1,29.1,1.7,43.6C406.5,473.9,407.8,489.3,408.5,504.7z"/>
<path fill="#E02230" d="M363.1,486.1c0.2,4.2,0.5,8.5,0.7,12.7c0.5,8.3,1,16.6,1.7,24.9c0.6,7.4,1.2,14.7,2.1,22.1
	c0.7,6,0.6,12.4,3,18.2c2,4.9,4.6,5.5,9.7,5c3.5-0.3,7-0.8,10.6-1c6.5-0.3,12.9,0.1,19.2,1.2c6.7,1.2,13.3,2.8,19.9,4.4
	c3.3,0.8,6.5,2.4,9.9,2.3c4.4-0.1,6.3-5.2,7.3-8.7c1.1-3.7,2.4-7.3,3.6-11c2.5-7.6,5-15.2,7.8-22.6c3.3-8.9,6.5-17.9,10-26.8
	c1.8-4.5,3.7-8.9,5.7-13.3c0.7-1.6,2.2-3.3,1.1-4.9c-0.9-1.3-4.6-3.8-6.3-3.3c-1.1,0.3-1.9,1.1-2.7,1.9
	c-5.7,5.5-11.2,10.8-17.7,15.1c-0.2,0.2-0.4,0.3-0.6,0.4c-1.3,0.9-2.7,1.7-4.2,2.5c-3.5,1.9-7.2,3.3-10.9,4.3c0,0,0,0,0,0
	c-7,1.9-14.4,2.1-21.7,0.4c-9.9-2.4-19.1-7.3-25.9-15.1c-1.8-2.1-4-4-5.4-6.4c-1.8-3.4-3.5-6.8-5.3-10.2c-0.8-1.6-1.5-4.1-3.1-4.7
	c-1.3-0.5-3.7,0.2-5.1,0.5c-2.9,0.6-4.3,2.7-4.1,5.6C362.9,481.7,363,483.9,363.1,486.1z M398.4,527.6c2.9-7.4,12.9-5,16.2,0.7
	c2.5-3.7,7.1-5.6,11.4-3.3c2.1,1.2,3.4,2.6,4,4.1c1.8,4.5-1.9,10-4.9,13c-3.1,3.2-7,5.7-10.5,8.4c-0.7,0.6-1.6,1.1-2.5,1
	c-1.8-0.3-4.3-3.5-5.6-4.8c-1.8-1.7-3.5-3.5-5-5.5C398.4,537.2,396.5,532.5,398.4,527.6z M374.3,542.8c0.1-0.9,1.3-1.1,1.7-0.3
	c1.5,3.5,1.5,7.4,2.3,11.1c0.5,2.3,1.1,4.6,3.7,5.1c1.7,0.3,3.4,0.6,4.9,1.4c1,0.4,0.9,2-0.2,2.1c-3.6,0.5-8.9,0.2-10.6-3.8
	c-1-2.4-1.3-4.9-1.6-7.5C374.4,548.2,373.9,545.4,374.3,542.8z"/>
<path fill="#E6E139" d="M423.8,460.6c0.2,15.3,0,30.6-0.3,45.9c2.6-0.2,5-0.5,7.4-1.1c0.7-5.7,1.2-10.4,1.9-15.3
	c0.8-5.8,1.7-11.7,2.7-17.5c1.6-9.5,3.1-18.9,4.2-28.5c0.1-0.9,0.2-1.8-0.1-2.6c-0.4-1.3-1.5-1.4-2.7-1.6c-1.5-0.4-3-0.8-4.5-1.2
	c-2-0.5-4-1-6-1.6c-1.1-0.3-2.1-0.5-3-1c0.1,7.2,0.3,14.4,0.3,21.6C423.8,458.6,423.8,459.6,423.8,460.6z"/>
<path fill="#E6E139" d="M451.3,495.4c5.8-4.2,11.1-9.3,16.3-14.5c0.5-0.5,1.1-0.7,1.9-0.7c0.4-1.2,1-2.4,1.1-2.8
	c1.1-2.8,2.2-5.7,3.3-8.5c1.4-3.6,2.6-7.3,3.8-10.9c0.3-0.9,1.1-2.3,1-3.2c-0.1-1.6-2.4-2.4-3.7-2.8c-1.9-0.6-3.7-1.2-5.6-1.8
	c-1.4-0.5-2.7-1.1-4.1-1.6c-0.3,1.1-0.6,2.3-0.9,3.4c-1.7,6.1-3.8,12.1-5.5,18.1C456.3,478.5,453.9,487,451.3,495.4z"/>
<path fill="#E6E139" d="M446.9,498.4c2.7-9.9,5.9-19.7,8.8-29.6c2.8-9.3,5.3-18.7,8-28c0.2-0.7,0.4-1.5,0-2.1
	c-0.4-0.7-1.5-0.9-2.2-1.3c-0.9-0.4-1.7-0.8-2.6-1.3c-3.6-1.7-7.4-3.9-11.3-4.9c-0.6-0.2-1.4-0.3-1.9,0.1c-0.5,0.4-0.6,1-0.6,1.6
	c-0.2,1.9-0.3,3.8-0.6,5.6c-0.2,0.9-0.9,7.2-1.5,9.3c-1,9.1-2.6,18.1-3.7,27.1c-0.7,5.9-1.4,11.7-2.2,17.6
	c-0.4,3.6-0.6,7.5-1.3,11.2C439.6,502.5,443.3,500.6,446.9,498.4z"/>
<g>
	<path d="M491.3,87c0-0.1,0.1-0.1,0.1-0.2c1.3-2.4,2-5.1,2.2-7.8c0.6-7.3-2.2-15.2-7.9-19.9c-3.3-2.7-7.3-3.8-11.6-3.8
		c-0.3,0-0.6,0-0.8,0c-4.3,0.1-7.5,1.7-10.8,4.7c-2,1.8-3.9,3.8-5.7,5.8c-7.1-8.5-21.6,2.6-27.3,7.8c-13,12-23.8,25.5-38.5,35.7
		c-13.6,9.4-31,13-43.3,24.1c-3.9,3.5-7.5,9.5-6.4,14.9c0.6,3.3,2.5,6.8,5.4,8.3c-1.5,1.5-2.6,3.3-3.4,5.4
		c-1.5,4.7-1.6,10.3,0.5,14.8c4.4,9.7,17.8,10.3,27,7.1c1.4,3.3,3.7,6.2,6.5,7.9c6.1,3.6,13.8,3.6,20.7,4.3
		c14.5,1.4,29.3-0.6,43-5.6c11.5-4.2,21.7-10.8,30.2-19.5c15.2-15.4,28-38.2,27.9-60.3C499.1,104.8,496.3,94.2,491.3,87z"/>
</g>
<path fill="#E29B4D" d="M445.3,183.4c9.9-4.8,18.6-11.3,25.9-19.6c6.3-7.1,11.9-14.9,16-23.5c1.5-3.1,2.9-6.2,4.2-9.4
	c2.4-5.9,4.1-12.1,4-18.5c-0.1-5.6-0.9-11.4-3.7-16.4c-2.2-3.9-5.5-8.3-10.1-9.5c-4.8-1.2-8,2.3-10.7,5.8
	c-5.6,7-11.7,13.4-18.1,19.7c-8.4,8.2-16.8,16.5-26,23.8c-9.2,7.3-18.7,14.1-28.4,20.6c-7.4,4.9-17.1,8.6-22,16.4
	c-2.5,4-2.2,8,0.1,11.9c3.4,5.7,11.3,5.7,17.2,6.3c5.5,0.5,11,0.9,16.5,0.6C422.4,191.1,434.5,188.7,445.3,183.4z M482.8,106.5
	c4,0,4,6.2,0,6.2C478.8,112.7,478.8,106.5,482.8,106.5z M472.4,148.5c0,0,0.1,0,0.1,0c2.2,0.4,2.2,4,0,4.4c0,0-0.1,0-0.1,0
	c-1.5,0.3-3-0.6-3-2.2C469.5,149.2,470.9,148.2,472.4,148.5z M463.6,131.8c1.8,0,3.2,1.5,3.2,3.2s-1.5,3.2-3.2,3.2s-3.2-1.5-3.2-3.2
	S461.9,131.8,463.6,131.8z M444.2,164.9c3.6,0,3.6,5.5,0,5.5C440.6,170.5,440.6,164.9,444.2,164.9z M429.4,155.1
	c1.7,0,3.2,1.4,3.2,3.2s-1.4,3.2-3.2,3.2s-3.2-1.4-3.2-3.2S427.7,155.1,429.4,155.1z M408.7,171.1c4.9,0,4.9,7.6,0,7.6
	C403.8,178.7,403.8,171.1,408.7,171.1z"/>
<path fill="#E29B4D" d="M349.7,154.5c0.6-0.4,1.2-0.9,1.8-1.2c0.1-1.1,0.6-2.3,1.3-3.1c1.3-1.5,3.2-2.5,5.1-3.1
	c2.5-0.8,5.2-1.2,7.9-1.1c0.3,0,0.7,0,1,0c1.7-0.7,3.3-1.5,4.9-2.3c3.2-1.7,6.1-3.6,9.1-5.7c0.8-1.9,1.8-3.7,3.1-5.4
	c3-3.6,7.3-5.5,12-4.8c1.5-1.2,3-2.4,4.5-3.6c5.7-4.7,11.4-9.4,16.9-14.3c0.1-0.2,0.2-0.5,0.3-0.7c1.7-3.4,4.6-6,8-7.6
	c0.4-0.2,0.7-0.3,1.1-0.4c4.8-4.6,9.5-9.2,14-14.1c0.9-1,1.8-2,2.7-3.1c0-0.1,0-0.2,0-0.4c0.3-6.5,4.3-10.4,9.5-12.3
	c0.7-1,1.5-2,2.2-2.9c-0.8-0.5-1.7-1.2-2.5-1.3c-7.6-1.1-14.9,4-20.1,9c-9.6,9.3-18.2,19.5-28.6,28c-10.3,8.5-21.1,15.4-33.2,21
	C361.3,129.4,334.8,142.9,349.7,154.5z"/>
<path fill="#E6E139" d="M446.3,86.5c0.1,3.6,0.3,7.3,0.2,10.9c-0.1,3-2.5,5-5.5,5.3c-2.8,0.2-5.7,0.5-8.5,0.3
	c-2.1-0.1-4.2,0.2-6.2,1c-3.9,1.6-6.8,5-7.7,9c-0.8,3.8-1.3,7.8-1.8,11.7c-0.4,3-1.7,5.6-4.3,7.3c-2.2,1.5-4.2,1.7-6.8,1.1
	c-5.4-1.1-13.1-4.7-17.9-0.4c-4.9,4.4-4.6,12.9-10.8,15.9c-3.8,1.8-7-0.5-10.8-0.6c-2.5-0.1-5,0.2-7.3,1c-1.4,0.5-5.4,2.4-4.3,4.2
	c0.8,1.5,4.2,1.3,5.7,1.5c2.5,0.3,5,0.6,7.3,1.5c4.5,1.8,8.9,4.8,14,4.4c1-0.1,1.9-0.2,2.8-0.5c1.8-1.2,3.6-2.4,5.5-3.6
	c1-1.3,1.7-2.8,2.1-4.6c0.4-2.2,0.5-4.4,0.4-6.6c-0.1-2-0.4-4.1,0.2-6.1c1.3-4.1,5.9-4,9.3-3c3.7,1.2,7.4,2.7,11.2,2.8
	c0.9,0,1.8-0.1,2.7-0.4c2.2-1.6,4.3-3.3,6.4-4.9c1.3-2.2,2-4.8,1.9-7.3c-0.2-6.6-1.3-18.6,8.8-18c4,0.3,8.2,1,12.1,0.1
	c3-0.6,8.3-2.1,9.3-5.5c1.2-4.3-0.4-9.5-0.3-13.9c0.1-2.8,0.2-6.3,2.2-8.5c2.6-3,6.5-3.6,10.3-3c2,0.3,3.9,0.8,5.8,1.3
	c1,0.3,3.7,1.5,4.8,0.6c0.2-0.1,0.3-0.3,0.4-0.4c0.7-1.4-1.5-3.5-2.4-4.2c-2.3-1.6-5.4-2.4-8.1-2.9c-3-0.6-6.1-0.5-9,0.3
	c-3.2,0.9-6.2,2.7-8.5,5C446.8,79.7,446.3,83.4,446.3,86.5z"/>
<g>
	<path fill="#E02230" d="M471.9,71c0.1,0,0.2,0.1,0.4,0.1c2.7,1,5.7,2.7,6.9,5.4c0.3,0.7,0.6,1.8,0.5,2.7c3.1-0.2,5.9,1.1,8.3,3.2
		c1.9-6.3,2-13.5-3.1-18.5c-4-3.9-9.4-5.3-14.7-3.5c-4.9,1.7-8.4,5.3-11.3,9.3C463.4,69.3,468.1,69.8,471.9,71z"/>
	<path fill="#E02230" d="M460.2,97.6c2.4-2.7,4.7-5.5,6.9-8.3c1.7-2.2,3.4-5.4,5.7-7.3c-2,0-3.9-0.4-5.8-0.9c-2.4-0.5-5.2-1-7.3,0.4
		c-3.1,2.2-2.5,8.4-2.3,11.7c0.1,2.1,0.4,4.8,0.1,7.4C458.5,99.6,459.4,98.6,460.2,97.6z"/>
	<path fill="#E02230" d="M443,97.6c1.4-2.1,1.1-4.2,1-6.6c0-0.4-0.1-0.7-0.1-1.1c-2.9,3.3-5.9,6.6-9,9.7c1.5-0.1,2.9-0.1,4.4-0.2
		C441,99.4,442,99.1,443,97.6z"/>
	<path fill="#E02230" d="M413,128.1c2.2-2.6,1.4-7.1,2-10.3c0-0.1,0-0.2,0.1-0.3c-1.9,1.8-3.8,3.5-5.8,5.2c-2.6,2.2-5.4,4.1-8.2,6.1
		c1.3,0.3,2.6,0.7,3.9,1C407.6,130.4,411,130.4,413,128.1z"/>
	<path fill="#E02230" d="M378.7,164.1c-2.9-0.5-5.8-2-8.5-3.3c-4.2-2.1-7.9-2.4-12.4-3.3c-0.9-0.2-2.2-0.4-3.4-0.8
		c-0.3,0.2-0.7,0.4-1,0.6c-5.5,3.5-7.6,12.8-4.3,18.4c4.2,7.1,14.4,4.9,21.1,2.8c-0.1-2.1,0.2-4.2,1.2-6
		C373.1,169.2,375.8,166.5,378.7,164.1z"/>
	<path fill="#E02230" d="M427,129.8c7.1-5.9,13.9-12,20.3-18.4c-1.3,0.4-2.7,0.7-4.1,0.8c-2.9,0.1-5.8-0.1-8.7-0.2
		c-2.4-0.1-4.9-1-6.4,1.4c-1,1.7-1,3.9-1,5.8c0,3,0.4,6,0.2,9.1C427.2,128.8,427.1,129.3,427,129.8z"/>
	<path fill="#E02230" d="M410.8,142.3c-1.5,0-2.9-0.5-4.5-1.1c-2.9-1.1-8.5-4.5-11.2-1.6c-2.3,2.4,0.3,8,0.2,10.9
		c0,0.8-0.1,1.8-0.3,2.7C400.3,149.7,405.6,146.1,410.8,142.3z"/>
</g>
<g>
	<path d="M585.7,313c-0.9-2.3-3.5-4-3.2-6.7c0.2-1.7,2-2.6,2-4.3c0-1.9-4.6-6-7-5.6c1.8-5.2,1.8-11.2-0.7-17.9
		c-3.2-9-8.7-16.2-15.8-22.4c-7.7-6.7-17.8-10.2-27.5-12.7c-15.2-4-31.6-5.1-47.3-3.1c-11.4,1.4-22.4,5.8-32.3,11.8
		c-11.8,7.2-27.9,23.5-23.7,38.9c-1.6-0.4-3.4-0.6-4.6,0.5c-1,0.9-1.1,2.3-1.2,3.6c-0.3,3.9-2.1,3.9-5.6,5.1c-1,0.3-1.2,1.6-0.8,2.4
		c1,2.2,1.2,2.4,3.6,3.7c4.7,2.5,6.9,7.7,5.9,12.8c-0.1,0.7,0.6,1.5,1.3,1.5c1.5,0,2.9-0.4,4.3-0.9c-0.2,0.8-0.3,1.6-0.3,2.4
		c-0.1,2.5,0.9,4.6,2.6,6.1c-0.3,0.4-0.6,0.9-0.9,1.3c-1.2,2.2-1,4.8-0.2,7.2c0.4,1.3,1.1,2.3,1.9,3c-9.1,7.7-9.6,22.5,0.3,30.2
		c6.7,5.3,14.2,7.2,22.5,8.1c11.3,1.2,22.5,3,33.9,3.5c21.8,1,43.2,1.7,58.4,0.4c12.3-1.1,19.8-7.4,23.3-14.6
		c2.8-5.8,0.4-13.6-4.6-17.4c1.3-1.8,1.8-4.1,1.4-6.3c0.7,0,1.5-0.2,2.1-0.4c2.1-0.8,3.5-2.8,3.9-5c0.4-2.2-0.2-4.6-1.6-6.4
		c-0.7-0.9-2-1.5-3.3-1.7c0.1-0.8,0-1.6-0.3-2.3l0,0c2.2-3.6,0.6-8.3,6.7-8.7C582.5,318.7,587.4,317.6,585.7,313z"/>
</g>
<path fill="#E6E139" d="M523.7,351.4c1.6,2.1,3.9,6,6.9,6.2c2.9,0.2,6.2-4.3,8.2-6c2.5-2.1,5-4.3,7.2-6.8
	c5.7-6.3,11.3-12.6,14.6-20.5c-0.1,0-0.1,0-0.2-0.1c-1.6-0.4-1.3,0-2.5,1.1c-0.4,0.4-2.3,1.7-2.4,2.1c-0.3,0.6-0.8,1.1-1.6,1.2
	c-3.5,0.3-5.5-1.2-8.7-2c-2.6-0.7-3.6,0.4-5.5,1.9c-1.2,0.9-2.7,1.1-4.1,1.4c-3.1,0.6-6.9-1.1-9.2-3c-2.6-2.1-6.9-7.3-10.9-1.5
	c-3.3,4.8-4.6,5.3-9.2,2.2c-2.9-2-6.2-3.6-8.5,0.2c-0.1,0.2-0.3,0.5-0.5,0.7C506.9,335.2,516.8,342.2,523.7,351.4z"/>
<path fill="#E29B4D" d="M449.4,300.3c6,1.2,11.9,2.4,17.9,3.7c12.6,2.6,25.2,5.2,38,6.4c12.3,1.2,24.7,1.4,37,1.1
	c7.1-0.2,14.7-1.6,21-5.4c7.1-4.3,11.8-8.4,10.2-17c-0.7-3.7-1.6-7.5-3.2-11c-3.3-7.5-7.9-14.8-14.7-19.6
	c-7.6-5.4-16.5-8.6-25.5-10.8c-22.1-5.6-48.4-4.7-68.7,6.6c-6.6,3.7-13,8.2-17.7,14.2c-3.7,4.7-7.7,10.6-9,16.7
	C433,294.5,441.6,298.7,449.4,300.3z M538.8,292.3c2.8-1.8,6.2,1,5.3,4.1c-0.5,1.7-2.2,2.9-3.9,2.7
	C536.3,298.8,535.9,294.2,538.8,292.3z M517.5,257.8c1.8-1.8,4.9-2.2,6.2,1.5c1.2,3.4-2.7,6.4-5.7,4.3
	C515.5,261.8,516,259.3,517.5,257.8z M510.4,282.4c2.6-1.5,7.7,0.9,5.1,4.4c-1.2,1.6-3.5,2.2-5.1,0.9c-1-0.7-1.5-1.9-1.4-3.1
	C509.1,283.5,509.7,282.8,510.4,282.4z M497.1,263c0-0.1,0.1-0.2,0.1-0.3c0.3-0.8,1-1.4,1.7-1.9c1.3-0.9,3-1.6,4.5-0.9
	c1.3,0.6,2,2.3,1.9,3.7c-0.2,2.4-1.7,5.1-4.5,4.7C498.8,268.1,496.6,265,497.1,263z M482.1,280.9c0.2-1.8,1.7-3.9,3.3-4.1
	c1.3-0.1,2.5,0.2,3.3,1.3c0.6,0.9,1.1,2.2,0.9,3.3c-0.2,1.3-0.8,2.5-2.1,3c-1.8,0.7-4.6-0.1-5.3-2
	C482.1,281.9,482.1,281.4,482.1,280.9z M467.5,259.7c0.9-1,2.4-1.4,3.9-0.8c2.3,1,3.5,3.9,2,6.1c-2.1,2.8-5.6,1.5-6.7-1.3
	C466.1,262.2,466.5,260.6,467.5,259.7z M460.4,283.6c0.2-0.1,0.5-0.3,0.7-0.4c3-1.4,6.7,2.2,4.6,5.1
	C462.3,293,456.3,286.4,460.4,283.6z"/>
<path fill="#E02230" d="M439.1,330.2c-1,1.2-1.5,2.6-1.1,4.1c0.4,1.6,1,3,3,2.9c1.5-0.1,2.8-0.6,4.1-1.2c2.2-0.9,2.6,1,2.6,2.7
	c0,2.3,1.8,4.4,4.2,4.4c1.6,0,3-0.9,4.3-1.8c0.7-0.5,1.4-1,2.2-1.4c1.1-0.7,1.3-0.5,2.3,0.4c1.5,1.4,2,3.3,3.9,4.2
	c2.7,1.3,5.4-0.1,7.4-1.9c0.8-0.7,2.1-2.3,3.3-2.2c0.9,0.1,1,1,1.4,1.6c0.7,1.1,1.7,2.1,2.8,2.8c1.4,0.9,3,1.3,4.6,1
	c1.3-0.2,2.5-1,3.7-1.7c0.6-0.4,1.2-1.1,2-1.3c1-0.3,1.2,0.3,2,1c1.5,1.3,3.1,2.6,5.1,3.1c2.1,0.5,4.5,0,6.2-1.4
	c0.5-0.4,0.9-0.8,1.4-1.1c1.2-0.7,3.9,2.2,5.3,2.7c1.6,0.6,3.5,0.5,4.8-0.5c-2.9-2.6-6-5-9.1-7.4c-3.1-2.4-6.2-4.8-9.3-7.1
	c-0.5-0.4-1-0.8-1.3-1.3c0,0,0-0.1,0-0.1c-0.4,0.1-0.8,0.2-1.3,0.1c-2.9-0.3-5-1.5-7-3.8c-4.6-5.2-6,1.3-10.1,2.1
	c-3.3,0.7-6.5-4.6-8.7-6.3c-3.4-2.8-7.3-4.4-11.5-2.4c-3,1.4-4.9,2.3-7.6-0.1c-1.8-1.6-3.2-4.1-5.6-4.6c-1.8-0.4-3.3,0.3-4.7,1.2
	c-1,1.2-1.8,3.3-1.8,4.7c-0.1,3.1,1.4,4,3.9,5.3C442.5,327.9,439.9,329.3,439.1,330.2z"/>
<path fill="#E29B4D" d="M566.8,352.7c-0.1,0-0.1,0.1-0.2,0.1c-2.5,0.9-7.3,0.1-9.6-2.1c-2.6,3.7-10.1,3.2-12,0
	c-2.3,2.5-4.8,4.8-7.5,6.9c-1.9,1.4-4.1,2.7-6.3,3.6c-2.5,0.9-4.2-1.1-5.8-3c-0.9-1-1.8-2.1-2.8-3.1c-1.8-2.1-3.7-4.1-5.7-6
	c-0.1-0.1-0.3-0.3-0.4-0.4c-0.3,0.6-0.7,1.1-1.2,1.5c-1.5,1.2-3.8,1.6-5.6,1.3c-1.6-0.2-3.3-1.2-4.5-2.6c-3.3,3.1-11,1.6-14.3-1.9
	c0.4,0.4-2.1,2.1-2.4,2.3c-1.1,0.5-2.3,0.7-3.5,0.7c-2.3,0-5.2-0.9-7.2-2c-1.3-0.8-2.1-2-3.2-3c-2.6,2-5.2,3.6-8.7,3.1
	c-2.7-0.3-5.5-2.2-6.6-4.8c-2.4,3-7.5,4.4-11,3c-2.4-0.9-3.6-2.4-3.9-5c0-0.1,0-0.3,0-0.4c-1.7,0.5-3.6,0.6-5.2,0.1
	c-13.2,10.9-3.5,27.5,11.1,31.2c14.1,3.5,29,4.2,43.5,5.1c15.1,0.9,28.3,1,43.5,0.9c4.2,0,8.4-0.1,12.6-0.4
	c7.6-0.7,14.4-2.9,18.9-9.3c3.3-4.6,5.3-11.8-1.1-14.8C567.4,353.3,567.1,353,566.8,352.7z"/>
<path fill="#E02230" d="M568.7,331.5c0-0.4,0.7-1.1,0.8-1.5c0.2-0.4,0.3-0.9,0.4-1.3c-1.8-0.2-3.8-1.2-4.9-1.8
	c-0.4-0.2-0.8-0.5-1.3-0.8c-3.9,8-9.5,14.7-15.5,21.2c-0.2,0.2-0.4,0.4-0.6,0.6c0.7,0.8,1.2,1.5,2.4,1.7c1.3,0.3,2.8,0,3.9-0.8
	c0.6-0.4,1.1-1,1.7-1.4c1.4-0.8,2.3,0,3.5,0.7c1.6,1,3.7,1.9,5.6,1.4c1.2-0.3,2.3-1,3-2.1c0.9-1.4,0.6-3,0.6-4.6
	c0-1.9,1-1.7,2.6-2.2c1-0.3,2.1-0.6,2.9-1.4c0.7-0.7,1.1-1.7,1-2.7c-0.1-1-0.6-1.9-1.4-2.5c-0.8-0.6-1.8-0.7-2.7-1
	C570,332.8,568.7,332.4,568.7,331.5z"/>
<path fill="#22E050" d="M579.2,305.3c0.5-1.4,1.5-2,0.8-3.5c-0.5-1.1-2.3-1.7-3.1-2.8c-4.6,9.4-15.4,15.3-27.9,16.4
	c-15.2,1.3-31.2,0.7-46.3-1.1c-16.2-1.9-32.4-4.6-48.2-8.6c-5.6-1.4-18.3-4.1-22.1-10.6c-0.5-0.1-1.1-0.1-1.6,0.2
	c-0.9,0.5-0.9,1.8-1,2.8c-0.3,3.3-6.4,2.8-5.8,5.3c0.2,0.8,0.9,1.4,1.5,2c1.5,1.4,2.8,2.9,3.8,4.6c0.7,1.1,1.7,5.1,2.6,5.6
	c1.8,1,6.8-4.5,9.5-4.6c3.5-0.2,5.1,3.4,7.8,5.1c4,2.6,7.6,0.1,11.9-0.2c1.6-0.1,3,0.4,4.4,1c3.1,1.2,5.3,4.3,8.3,5.9
	c4.1,2.2,4.9-2.2,8.9-2.5c2.9-0.2,4.7,2.6,6.3,4.5c7.1,7.7,6.7-1.9,11.3-2.9c3.4-0.7,6.3,4.4,10,3.5c1.7-0.4,2.5-2.2,3.6-3.3
	c1.4-1.5,3.2-2.6,5.2-3.3c3.3-1,5.9,2.4,8,4c3.7,2.9,8,5.2,12.1,0.7c0.7-0.8,1.7-1.9,2.8-2.2c2.9-0.6,5,1.7,7.6,2.5
	c1.2,0.4,3.2,0.8,4.3,0.2c1.3-0.7,1.8-2.6,3.3-3.4c3.6-1.7,11.9,8.2,13.5,1.4c0.5-2,0.9-3.2,2.3-4.7c0.9-1,2.6-1.6,3.9-1.8
	c3.2-0.4,5.1-1.5,3-4.6C578.9,309.3,578.4,307.4,579.2,305.3z"/>
<g>
	<path d="M229.6,267.3c1,5.3,4.8,9.3,10,10.6c1.8,0.4,3.6,0.6,5.4,0.5c-0.1,10.3,5.9,19.4,11.1,28c7.8,12.9,7.4,27.5,12.9,41.1
		c4.7,11.6,11.9,22.1,17.1,33.6c1.8,4,3.6,8,5.4,12c1.6,3.5,2,7.4,4,10.7c1.8,3.1,4.3,5,7.9,4c2.7-0.8,5.1-2.3,7.2-4.3
		c4.2-4.1,6.7-9.5,9.4-14.5c6.6-12.3,10.6-25.8,14.1-39.2c3.7-14.2,12.3-26.7,18.4-39.9c4.7-10.2,10-22.4,10.2-34
		c2,0.8,4.1,1.2,6.1,1.4c5.3,0.3,11.1-2.6,12.8-7.9c1.8-5.5-0.4-10.7-5.1-13.8c-3.4-2.2-9.4-2.4-14.1,1.2c-1.1-4.2-4.1-6.9-8.7-8.3
		c-4.3-1.2-9.7-1.6-13.3,1.4c-1.6-3.4-6.2-5.9-9.6-7c-5.1-1.7-12.2,0-16.5,3.5c-2.6-3.9-6.7-6-10.4-6.3c-6.8-0.5-10.7,0.4-16,4.5
		c-2.8-2.9-7.9-3.9-11.1-3.7c-5.4,0.5-9.9,4.7-13,8.9c-7.5-2.8-16.5-3-23.5,1C234.5,254.1,228.2,260,229.6,267.3z"/>
</g>
<path fill="#FFFFFF" d="M290.6,338.7c1-0.5,1.9-1.1,2.6-1.9c0.4-0.4,0.7-0.9,1-1.4c0.2-0.4,0.4-0.9,0.1-1.3
	c-0.2-0.3-0.5-0.5-0.8-0.7c-1.6-1-3.3-1.9-5-2.9c-0.3-0.1-0.5-0.3-0.8-0.5c-0.7-0.7-0.2-1.4,0.4-1.9c1.2-1,2.4-2.2,3.4-3.5
	c0.3-0.4,0.7-0.7,1-1.1c0.5-0.7,0.3-0.9-0.3-1.4c-0.9-0.9-2-1.7-3-2.4c-1-0.6-1.5,0.3-2.1,1c-1.2,1.4-2.2,3-2.9,4.7
	c-0.5,1.4-1.9,0.7-2.7,0.1c-1.2-0.9-2.1-1.8-3.4-2.4c-0.8-0.4-1.8-0.7-2.7-0.3c-1.2,0.5-1.5,2.1-1.8,3.2c0,0.1,0,0.2,0,0.2
	c-0.6,3.3,0,7,2.5,9.4C279.7,339.1,285.9,340.9,290.6,338.7z"/>
<path fill="#FFFFFF" d="M339.7,282.7c-1.4,0.6-2.8,1.3-4.2,2c-0.5,0.2-1,0.5-1.5,0.5c-0.5,0-1-0.3-1.3-0.8c-0.4-0.7-0.5-1.8-0.7-2.6
	c-0.3-1.1-0.6-2.3-0.9-3.4c-0.1-0.4-0.2-0.8-0.5-1.1c-0.7-0.8-2.4,0.1-3.1,0.5c-0.9,0.5-2,0.8-2.8,1.5c-1,0.8-0.5,1.7,0.1,2.7
	c0.6,0.8,1.1,1.6,1.7,2.4c0.4,0.6,0.9,1.3,0.9,2c0.1,1.5-1.2,1.9-2.3,2.3c-1.7,0.6-3.3,1.4-4.8,2.4c-3.5,2.3,0.9,6.6,2.7,7.6
	c4.1,2.2,9.6,2.4,13.7,0c3.8-2.2,7.3-5.9,6.9-10.7C343.4,286.2,343,281.3,339.7,282.7z"/>
<path fill="#E02230" d="M302.2,354.5c-4.9,1.9-11,7.9-5.8,13.1c2.7,2.6,7.3,3.3,10.6,1.5c3-1.6,6.3-3.8,5.9-7.6
	C312.3,356,307.7,352.3,302.2,354.5z"/>
<path fill="#E02230" d="M308.4,315.5c-6.2,3.9-8.7,16.8,0.6,19c5.1,1.2,11,1,15.1-2.6c3.4-3.1,4.8-7.6,3.1-12.1
	C324.3,312.7,314.3,311.8,308.4,315.5z"/>
<path fill="#E02230" d="M278.1,305.5c5.2,2.2,13.1,3.6,17.4-1.1c4.3-4.7,6.7-11.6,2.9-17.3c-4.3-6.4-18.2-10.7-24.2-3.9
	C267.5,290.6,268,301.2,278.1,305.5z"/>
<path fill="#E6E139" d="M356.4,270.1c-5.9,2.9-15.4,0.9-19.1-5.2c-7.4,5.9-18.7,3.9-24.3-3.3c-5.7,6.9-17.1,6-23.6,1
	c-1.9,4.7-8,8-12.2,8.7c-5.9,1-10.5-1.8-15.2-4.8c-1.2,2.4-2.2,4.5-4.2,6.4c-1.7,1.5-3.6,2.8-5.7,3.7c-1.6,0.7-3.2,1.2-4.9,1.5
	c1.3,11.5,8.6,20,13.3,30.4c4.7,10.6,5.3,22.5,10.4,33.1c4.9,10.3,10.7,20.2,15.4,30.5c2.5,5.4,4.7,10.9,6.7,16.4
	c1.4,3.8,2.9,15.9,8.5,14.9c5.5-1,8.6-8.5,11-12.8c3.2-5.9,6.4-12,8.9-18.2c4.2-10.5,6-22,10.5-32.3c4.8-11,11.6-21.1,16.6-32.1
	c5-11.2,7.4-22.3,10.6-33.9C358,273.1,357,271.8,356.4,270.1z M311.7,274.3c1.4,0.8,2.7,2.6,2.5,4.3c0.3,2.3-1.2,4.8-3.6,5.2
	c-1.3,0.3-2.7,0.1-3.7-0.8c0,0,0,0,0,0c0,0,0,0,0,0c0,0,0,0,0,0c0,0,0,0,0,0c-0.2-0.1-0.3-0.2-0.5-0.4c-0.1-0.1-0.3-0.2-0.4-0.4
	c-0.4-0.5-0.7-1-1-1.6C303.6,276.9,307.9,272.2,311.7,274.3z M262.3,289.9c-0.2,0.2-0.4,0.5-0.7,0.7c-2.6,1.7-5.7-0.2-6.8-2.7
	c-1-2.4,0.5-5.5,3-6.2c2.4-0.7,5.3,0.7,6,3.2C264.2,286.5,263.7,288.9,262.3,289.9z M273,279.9c3.7-3.4,11.4-4.1,16.1-2.9
	c5.9,1.4,10.7,4.3,13.3,10c4.8,10.4-3.6,24-14.9,24.2c-5,0.1-10.4-1.6-14.5-4.6C264.1,299.9,265.6,286.8,273,279.9z M272.3,333.8
	c-1.1-2.9-0.9-6.1,0.2-8.9c0.5-1.4,1.3-3.3,2.5-4.3c1.2-1,3.1,0,4.2,0.7c0.3,0.2,3.5,2.4,3.4,2.5c1.2-2.3,2.6-5.5,4.7-6.7
	c2.1-1.2,4.3,0.9,5.8,2.2c1.6,1.4,3.3,2.6,2.2,4.8c-0.6,1-1.9,2.1-2.7,2.8c-0.7,0.6-1.5,1.2-2.3,1.9c0.1-0.1,1.7,0.7,1.9,0.8
	c0.7,0.3,1.4,0.7,2.1,1c1.2,0.7,2.4,1.6,2.8,3.1c0.6,2.4-1.1,4.7-2.8,6.1c-2,1.7-4.5,2.7-7.1,3c-3.4,0.4-6.9-0.6-9.6-2.6
	C275.2,338.6,273.3,336.4,272.3,333.8z M290.8,352.1c0,0.1,0,0.2-0.1,0.3c0.1,1.1-0.4,2.3-1.3,3c-1.2,1-2.9,1.5-4.4,0.6
	c-1.9-1.2-3-4.2-1.6-6.1c0.8-1.1,1.9-1.8,3.3-1.9c1.1-0.1,2.4,0.3,3.1,1.2C290.5,350,290.9,351,290.8,352.1z M306.5,373.7
	c-5.1,2.2-12-1.1-13.8-6.2c-2.6-7.4,1.4-13.1,8.2-16.1c7-3.2,13.8,1.3,15.5,8.4C317.9,366.4,311.9,371.3,306.5,373.7z M330.2,328.6
	c-3.7,10.8-18,14-26.8,7.4c-6.7-5-5-18.5,1.5-22.9c7.7-5.3,20.4-5.7,24.9,3.9C331.5,320.5,331.4,324.9,330.2,328.6z M341.3,313.7
	c-0.8,1.2-2.1,2-3.5,1.9c-1.5-0.2-2.7-1-3.3-2.4c-0.5-1.3-0.7-2.6,0-3.9c1.3-2.3,4.7-3,6.6-1c0.9,0.9,1.3,2,1.2,3.3
	C342.3,312.3,341.9,313.2,341.3,313.7z M336.6,302.3c-7.3,2.6-15.4,1.1-19.5-6c-1.3-2.3-1.2-5.9,1.1-7.5c0.9-0.6,1.9-1,2.9-1.3
	c0.9-0.3,2.7-0.3,3.1-1.4c0.4-1.1-1.7-3.8-2.2-4.8c-0.5-1-0.5-2,0.2-3c0.6-0.7,1.4-0.9,2.2-1.3c0.9-0.5,1.9-0.9,2.8-1.3
	c1.4-0.7,3.5-1.6,4.9-0.3c1.4,1.3,1.6,4.1,2,5.8c0.6,2.2,3.5-0.3,4.7-1c0.7-0.4,1.4-0.7,2.2-0.9c3.5-0.7,5.4,4.5,5.6,7.1
	C347.4,293.4,343.3,299.9,336.6,302.3z"/>
<path fill="#E29B4D" d="M319.5,247.2c-1.3,0.4-2.6,0.9-3.8,1.5c-0.8,0.4-1.7,1.6-2.7,1.3c-0.8-0.3-1.4-1.6-2.1-2.2
	c-2-1.8-4.4-3-7-3.6c-3.3-0.7-6.7-0.4-9.8,0.7c-1.5,0.5-3,1.3-4.4,2.1c-1.9,1.2-2.2,1.5-4.1,0c-5.2-4.1-12.1-2.2-16.9,1.5
	c-1.4,1.1-2.7,4-4.6,4.5c-0.5,0.1-0.9,0.2-1.4,0c-3.1-1-5.7-1.8-8.8-1.8c-6.4,0-13.3,2.3-17.9,7.2c-0.3,0.4-0.7,0.8-1,1.1
	c-2.8,3.5-3.1,9.3,0.7,12.3c2.7,2.2,6.4,2.8,10,2.5c0.2,0,0.3-0.1,0.5-0.1c2.2-0.3,4.3-0.9,6.2-1.8c1.9-0.9,3.6-2.1,5.1-3.6
	c1.5-1.5,2.2-3.4,3.2-5.2c0.7-1.4,1.4-1,2.9-0.6c2.4,0.8,4.6,2.3,7,3.2c3.2,1.2,6.7,1.7,10,0.4c3-1.1,5.2-2.7,7-5.3
	c0.4-0.6,0.7-1.6,1.4-1.9c1-0.5,2.4,0.7,3.2,1.2c3.6,2.5,7.7,3.2,11.8,2.1c3.1-0.8,5.4-2.4,7.9-4.3c1.5-1.1,2.2-0.9,3.6,0.2
	c1.1,0.9,2.2,1.9,3.4,2.8c2.3,1.8,4.9,3.2,7.8,3.2c1.6,0,3.3-0.3,4.9-0.6c1.6-0.4,3.1-1.3,4.5-2.1c1.5-0.8,2.4-1.6,3.8-0.3
	c0.9,0.9,1.6,2,2.4,2.8c1.4,1.4,3.1,2.5,5.1,3c3,0.7,5.9-0.1,8.9-0.5c0.5-0.1,1.7-0.5,2.1-0.2c0.3,0.2,0.6,1.4,0.8,1.8
	c1.9,3.4,5.4,4.7,9.2,4.6c3.9-0.1,8.4-1.7,9.1-6.1c0.8-4.9-2.9-9-7.8-8.8c-1.8,0.1-3.6,0.7-5.4,1.1c-1,0.2-2.7,1.4-3.7,1
	c-1.1-0.4-1.3-2.4-1.7-3.3c-2.7-5.8-10.7-6.8-16-4.3c-0.8,0.4-2.5,1.1-3.4,0.8c-1.9-0.7-3.1-3.5-4.8-4.7c-2-1.5-4.3-2.5-6.8-2.5
	C324.9,246.3,322.1,246.5,319.5,247.2z M247.5,257.4c-2.1,1-4,1.9-5.7,3.6c-0.7,0.7-1.3,1.4-1.8,2.3c-0.5,0.9-0.6,1.9-1.1,2.8
	c-0.1,0.4-0.1,0.7-0.4,1c-0.3,0.4-0.7,0.3-0.9,0c-1-1-1.1-3-0.9-4.3c0.3-1.5,1.1-3,2.3-4c1.4-1.2,3-2.1,4.8-2.7
	c0.9-0.3,4.7-1.7,5.2-0.2C249.4,256.7,248,257.2,247.5,257.4z M278.9,250.6c-2.3-0.3-4.7,0.4-6.5,1.8c-0.3,0.2-0.5,0.4-0.8,0.6
	c-0.1,0.1-0.3,0.1-0.4,0.2c-1.4,0.3-1.1-1.2-0.7-1.9c0.4-0.8,1.2-1.5,2-1.9c1.6-0.9,3.7-1.4,5.5-1.3c1.1,0.1,2.7,0.4,3.3,1.4
	C282.3,250.9,279.8,250.7,278.9,250.6z M304.7,250.8c-2.8-0.9-5.2-1.5-8.1-0.2c-0.2,0.1-0.3,0.2-0.5,0.2c-0.2,0.1-0.4,0.2-0.6,0.2
	c-1,0.1-1.5-0.7-0.9-1.5c1.3-1.6,3.2-2.5,5.3-2.7c1.8-0.2,4.1,0.1,5.5,1.3c0.5,0.5,1.1,1.4,1.3,2.1
	C307.2,251.8,305.7,251.1,304.7,250.8z M334.4,253.3c0.7,1.4,0,2.3-1.6,1.6c-0.6-0.2-1.1-0.6-1.6-0.9c-1.7-1.1-3.8-1.6-5.8-1.6
	c-0.2,0-0.5,0-0.7,0c-0.4,0-0.8,0-1.1-0.1c-1-0.3-1.7-1.4-0.7-2.2c0.3-0.3,0.7-0.4,1.2-0.5c2-0.5,4.2-0.4,6.1,0.4
	C331.6,250.6,333.7,251.8,334.4,253.3z"/>
<path d="M250.7,422c0.4-2-0.5-4.2-1.9-5.7c-2-2.2-5.2-2.2-7.7-1.2c-2.7,1.1-3.9,4.5-3.8,7.1c0.1,1.4,0.7,2.8,1.4,4.1
	c0.3,0.5,1,1.2,1.1,1.8c0,0.6-0.4,1-0.9,1.3c-0.3-0.5-0.8-1.1-1.3-1.3c-1-0.5-1.9,0.1-2.8,0.5c-1.4,0.6-2.9,1-4.3,1.3
	c-3.2,0.6-6.4,0.9-9.5,1.9c-1.6,0.5-3.1,1.6-4.3,2.9c0-0.1-0.1-0.1-0.1-0.2c-1.1-2.2-2-4-2.5-6.5c-0.4-1.9-0.1-4.7-1.5-6.1
	c-0.6-0.6-1.3-0.7-2-0.6c0.2-0.5,0.5-1.1,0.7-1.6c0.1-0.3,0.3-0.6,0.5-0.8c0.6-0.5,2.4,0.2,3.2,0.1c1.1-0.1,2.3-0.3,3.3-0.7
	c3.5-1.4,4.2-4.5,3.5-8c-0.6-3.5-3.4-6-6.7-6.7c-1.2-0.3-2.9,0-4.2,0.8c-1.6-4.3-7.2-7.2-11.5-4.8c-3.3,1.8-4.6,5.6-4.1,9.2
	c0.3,1.8,0.9,3.5,1.9,5c0.7,1,1.2,1.3,0.8,2.5c-0.2,0.7-0.6,1.3-1,2c-0.5-0.8-1.2-1.4-2.3-1.3c-2.5,0.2-3.5,4.3-5.1,5.8
	c-2.8,2.6-7.9,3.1-11.3,4.5c-5.4,2.1-10.9,6.5-12.2,12.3c-1.7,0.1-3.4,0.2-5,0.4c-2.9,0.3-5.8,0.6-8.6,0.4c-1.4-0.1-2.8-0.3-4.2-0.7
	c-1.5-0.5-2.8-1.5-4.1-2.4c-0.7-0.4-1.5-0.9-2.3-0.5c-0.5,0.2-0.8,0.7-0.9,1.2c-0.1,0.4-0.1,0.9-0.1,1.3c-1-0.6-2-1.2-3.1-1.7
	c-0.3-0.2-0.6-0.4-0.9-0.6c-0.6-0.7,0.1-1.8,0.3-2.6c0.2-0.8,0.3-1.7,0.3-2.6c0-1.7-0.4-3.3-1.1-4.8c-1.5-3.1-4.5-5-8-4.8
	c-6.8,0.4-10.5,8.4-7.2,14c-5.3-0.4-10.2,4.4-8.5,10c1,3.2,4.5,4.1,7.5,3.7c1.6-0.2,3.1-0.6,4.4-1.4c1.2-0.6,1.8,0.1,2.8,0.8
	c1.2,0.8,2.4,1.5,3.6,2.3c0.2,0.1,0.3,0.2,0.5,0.3c-2.1,0.7-6,1.1-4,3.8c0.5,0.7,1.2,0.8,1.9,1.2c0.6,0.4,1.3,1,1.7,1.5
	c1.4,1.6,2.5,3.4,3.4,5.3c0.7,1.5,1.5,2.9,2.5,4.1l-4.6,0.6c-5.8,0.7-9.9,5.6-9.3,10.8c0.5,4.4,4.2,7.7,8.8,8.2
	c0.1,0.2,0.2,0.5,0.3,0.7c2.4,5.8,4,12,5.8,18.1c2.2,7.6,4.4,15.1,6.7,22.7c2.5,8.3,4.9,16.7,7.4,25c2,6.7,4,13.5,5.9,20.2
	c1.5,5.1,2.8,10.6,5.1,15.4c1.2,2.5,3.1,4.9,5.6,6.2c4.6,2.4,9.9,0.7,14.8,0.1c5.2-0.6,10.4-1.3,15.6-1.9c9.3-1.1,18.5-2.3,27.8-3.4
	c6.6-0.8,16.2,0.3,20.1-6.4c1.7-2.8,2-6.2,2.3-9.4c1.1-11.6,2.2-23.2,2.7-34.8c0.4-9,0.8-18,1.2-27c0.3-7.9,0.7-15.7,1-23.6
	c0.1-3.3,0.3-6.6,0.6-9.9c0.2-2.3,0.3-4.6,0.4-6.9c4.9-1.3,8.3-5.7,7.7-10.5c-0.6-5.3-5.9-9-11.6-8.3l-1.9,0.2
	c0.5-1.4,0.4-3.2,0.1-4.7c-0.4-2-1.1-3.7-1.1-5.8c0-1.7,0.7-3.7,0.2-5.2c-0.3-0.8-0.9-1.4-2.1-1.7c-0.1,0-0.2,0-0.2,0
	c0.2-0.2,0.4-0.4,0.6-0.6c0.3-0.3,1-1,1.3-1.1c0.7-0.2,1.4,0.2,2,0.4c0.8,0.2,1.6,0.4,2.5,0.4c4.5,0.2,9-2.3,9-7.2
	C261.9,422.5,255.2,419.7,250.7,422z"/>
<path fill="#E29B4D" d="M142.7,466.3c0.3,0.1,0.5,0.3,0.7,0.5l43.2-5.3c-1.7-14.3-11.8-19.6-25.4-18.1c-3,0.3-6,0.5-9,0.1
	c-1.5-0.2-2.9-0.7-4.2-1.3c-0.6-0.3-2.8-2.3-3.3-1.9c-0.3,0.2-0.4,0.6-0.4,0.9c-0.3,1.5-0.2,3.7-1.5,4.6c-1.5,1-3.7,0.7-5.4,1.3
	c-1,0.3-0.8,1.3-0.8,2.1c0,1.1-0.2,2.2-0.9,3.1c-0.6,0.8-2,1.3-2.4,2.2c-0.6,1.4,1.2,2.5,2,3.5C137.6,460.8,139,465,142.7,466.3z"/>
<path fill="#FFFFFF" d="M134,450.2c0.8-1.2,0.5-2.6,0.4-4.2c0-0.5-0.1-1,0.1-1.4c0.7-1.4,3.8-0.3,5-0.8c1-0.5,1.4-1.4,1.6-2.3
	c-0.7-0.3-1.4-0.9-1.9-1.2c-1-0.5-1.9-1.1-2.9-1.6c-0.6-0.3-1.1-0.7-1.4-1.2c-0.2-0.5-0.2-1,0-1.5c0.3-0.7,0.8-1.2,0.9-2
	c0.2-0.8,0.2-1.6,0.1-2.4c-0.2-1.6-1.1-3-2.3-4.1c-1.2-1.1-2-1.4-3.5-1.6c-1.4-0.2-2.8-0.1-4.1,0.5c-1.3,0.7-2.3,1.8-2.8,3.2
	c-0.7,2-0.3,4.1,0.4,6c0.2,0.7,0.8,1.5,0.4,2.2c-0.3,0.6-1.2,0.6-1.8,0.7c-1.6,0.3-3.2,0.7-4.6,1.6c-1.9,1.3-3,3.4-1.8,5.6
	c0.9,1.7,3.1,2.1,4.9,1.9c1.1-0.1,2.8-0.5,3.7-1.2c0.9-0.7,1.2-1.3,2.4-0.5c1.2,0.8,2.3,1.7,3.6,2.4c1,0.5,2.1,1.3,3.1,1.6
	C133.8,449.8,134,450,134,450.2z"/>
<path fill="#FFFFFF" d="M137,487c0.1,0.2,0.2,0.5,0.2,0.7c1.2,4.1,2.2,8.2,3.4,12.2c2.2,7.5,4.4,14.9,6.6,22.4c2.6,9,5.3,18,7.9,27
	c2.2,7.6,4.4,15.1,6.7,22.7c0.8,2.7,1.4,5.4,2.4,8c0.8,2.1,1.7,4.2,2.5,6.3c0.7,2,1.6,4.1,3.4,5.2c1.3,0.9,3,1.2,4.8,1.3L149,485.5
	L137,487z"/>
<path fill="#E29B4D" d="M190.5,461l19.4-2.4c0-0.3,0.1-0.6,0.3-0.9c3.6-5.6,5.9-11,5-17.1c0,0,0-0.1-0.1-0.1
	c-0.1-0.3-0.1-0.5-0.1-0.8c-0.3-1.3-0.7-2.7-1.3-4.2c-0.7-1.7-1.4-3.4-1.8-5.2c-0.3-1.3-0.1-3-0.7-4.2c-0.6-1.1-1-0.8-2-0.4
	c-1,0.4-2,0.8-3.1,1c-2,0.4-4.1,0.4-6.1-0.3c-1.1-0.4-2-1.3-2.6-2.2c-0.5-0.7-0.9-2.2-1.7-2.5c-1.5-0.7-2.6,2-3.4,2.9
	c-1.3,1.3-2.8,2.3-4.5,3c-7.1,2.9-12.9,5-17,11.6c2.6,0.2,5.2,0.8,7.6,2.2C185.7,445.8,190.4,452.7,190.5,461z"/>
<path fill="#E02230" d="M151.4,485.2l25.9,107.6c1.6-0.1,3.2-0.4,4.7-0.5c1.9-0.2,3.7-0.5,5.6-0.7l-22.2-108.1L151.4,485.2z"/>
<path fill="#FFFFFF" d="M201.6,423.6c2.1,0.1,4.3-0.2,6.2-1.1c0.1,0,0.1-0.1,0.2-0.1c0-0.1,0.1-0.2,0.1-0.3c0.5-1.1,1-2.3,1.5-3.4
	c0.4-0.9,0.8-1.9,1.8-2.3c1-0.4,2.1,0,3.2-0.2c1.1-0.1,2.1-0.2,3.1-0.7c2.2-0.9,2.7-3,2-5.2c-0.9-3.2-4.2-5.8-7.4-3.5
	c-0.4,0.3-0.7,0.6-1.1,0.8c-0.4,0.2-0.9,0.3-1.3,0c-0.4-0.3-0.5-0.8-0.7-1.2c-0.4-1.7-0.7-3.3-2.3-4.3c-1.7-1.1-4.5-1.4-6,0.2
	c-1.6,1.6-2.4,3.7-2.1,5.9c0.1,1.1,0.5,2.1,1,3.1c0.5,1,1.5,1.8,2,2.8c0.6,1.2-0.6,2.7-1.2,3.7c-0.5,1-1.1,2.1-1.9,3
	C199.3,422.3,200,423.5,201.6,423.6z"/>
<path fill="#FFFFFF" d="M127.4,478.5c0.4,3.3,3.8,5.6,7.6,5.1L253.7,469c3.8-0.5,6.5-3.5,6.1-6.8c-0.4-3.3-3.8-5.6-7.6-5.1
	l-118.7,14.6C129.8,472.1,127,475.2,127.4,478.5z"/>
<path fill="#FFFFFF" d="M254,423.8c-1.2,0.3-3.4,1.7-4.6,0.6c-0.8-0.8-0.6-2.2-0.7-3.2c-0.2-1.5-0.7-3-2.2-3.7
	c-5.1-2.6-7.8,3.7-5,7.5c0.6,0.8,1.4,1.5,1.6,2.5c0.3,1.4-0.7,2.6-1.7,3.6c-0.4,0.5-0.9,0.9-1.4,1.2c0.2,0.9,0.6,1.8,1.4,2.5
	c0.8,0.7,1.7,1,2.6,1.1c0.2-0.6,0.7-1.2,1.1-1.6c0.7-0.8,1.4-1.6,2.3-2c1.8-0.8,4,0.7,5.8,0.9c3.4,0.3,8-2,6.8-6
	C259.1,424.7,256.6,423.3,254,423.8z"/>
<path fill="#FFFFFF" d="M190,591.3c1.9-0.2,3.8-0.5,5.7-0.7c0.8-0.1,1.5-0.2,2.3-0.3l-13.5-109.2l-16.8,2.1L190,591.3z"/>
<path fill="#FFFFFF" d="M239.8,585.4c1.6-0.4,3-1,4.1-2.1c1.4-1.3,1.8-3.7,2.1-5.5c1.2-6.6,1.4-13.3,1.8-19.9
	c0.5-7,0.9-14.1,1.2-21.1c0.2-4.4,0.4-8.7,0.6-13.1c0.2-3.9,1-8.4,0.5-12.3c0.3-7.8,0.7-15.7,1-23.5c0.2-5,0.1-9.9,0.2-14.9
	c0-0.1,0-0.1,0-0.2l-12.4,1.5L239.8,585.4z"/>
<path fill="#E02230" d="M200.4,590c4.4-0.5,8.7-1.1,13.1-1.6L200,479.2l-13.1,1.6L200.4,590z"/>
<path fill="#FFFFFF" d="M202.4,478.9l13.5,109.2c2.9-0.4,5.7-0.7,8.6-1.1L220,476.7L202.4,478.9z"/>
<path fill="#E02230" d="M222.4,476.4l4.5,110.3c1-0.1,2-0.2,3-0.4c2.2-0.3,4.9-0.2,7.6-0.5l-0.7-111.1L222.4,476.4z"/>
<path fill="#E29B4D" d="M246,454.2c0.1-0.3,0.2-0.6,0.3-0.9c0.6-1.8,0.3-3.6,0-5.4c-0.4-1.7-0.3-3.5-0.3-5.3c0-1,0.3-2.3-0.7-2.9
	c-0.6-0.4-1.3-0.3-2-0.4c-2.4-0.2-4.7-1.8-5.8-4c-0.4-0.8-0.6-1.7-1.2-2.3c-1.2-1.3-3.2,0-4.5,0.4c-5.5,1.6-10.2,1.2-12.8,6.6
	c0.3,1.5,0.5,3.1,0.5,4.8c0.1,4.6-1.4,9.6-4.3,13.3L246,454.2z"/>
<g>
	<path d="M179.4,308.3c-0.4-0.4-0.7-0.7-1-1.1c1.2-4,1.4-8.2,0.6-12.2c-0.4-2-1.2-3.9-2.3-5.6c-3.6-5.6-10.2-9.2-16.9-9.2
		c-0.7,0-1.4,0.1-2,0.1c-0.1,0-0.2-0.1-0.2-0.1c-1.2-0.7-1.6-4.8-2.3-6.3c-2.6-5.5-11.3-5.8-15.3-10.1c-4.5-4.8-4.8-8.6-12.3-8
		c-5.3,0.4-8.1,2.4-13.3-1.4c-3-2.2-6.4-2.5-9.8-1.9c-3-2-6.5-3.5-10.7-4.3c-11.8-2.5-25.6,2.5-34.4,10.9c-0.4,0-0.8,0.1-1.2,0.2
		c-3.3,0.9-5.6,1.8-7.9,4.5c-3.3,4-5.3,7-11.1,8.2c-2.5,0.5-5.7,1.2-7.3,3.3c-2.2,2.8-2.8,5.8-3.7,9.2c-1.5,5.7-7,5.8-11,8.6
		c-4.3,2.9-5.4,6.7-5.8,11.3c-4,2.7-7.1,6.8-8.9,12.4c-2,6.6-1.6,13.7,1.3,19.6c-0.2,0.8-0.4,1.6-0.8,2.5c-1.4,3.4-2.9,6.1-2.8,9.8
		c0.2,6.1,7.9,7.8,11.6,11.1c0.1,0.1,0.1,0.1,0.2,0.1c1.3,6.2,4.5,11.5,11.3,12.9c3.3,0.7,7.8-0.7,11.2-1.1
		c4.1-0.5,8.1-1.1,12.2-1.7c16.2-2.5,32.2-5.5,48.4-8.1c15.8-2.5,31.6-5.1,47.4-7.7c5.6-0.9,11.1-2,16.6-3.1
		c4.5-0.9,11.8-1.1,15.4-4.2c3.9-3.4,4.8-8.4,4.3-13.7c0.8-1,1.5-2.2,1.7-2.6c2.2-4,2.2-7.8,2.4-12.2
		C182.8,314.5,182.1,311.1,179.4,308.3z"/>
</g>
<path fill="#E29B4D" d="M153.3,292c-17.5-19.2-43-27.2-68.5-23.3c-23.5,3.6-48.2,17-58.6,39.8c-4.9,10.8-8.5,22.1-10,33.9
	c-0.9,6.5-2.7,14,0.6,20.2c0.8,1.5,1.7,2.7,2.7,3.6c4.5,4.1,10.5,1.4,17.3,0.1c19.2-3.6,38.6-6.2,57.8-9.4c14.1-2.3,28.1-4.7,42.2-7
	c7.5-1.2,14.9-2.4,22.4-3.7c5.2-0.8,12.5-1,15.1-6.7c2.2-4.7-1.1-11.7-2.7-16.3C167.7,311.7,161.5,301,153.3,292z M50.4,304.1
	c-0.4-2.1,1.1-4.3,3.2-4.7c2.1-0.4,4.2,1.2,4.5,3.4c0.4,2.1-1.1,4.2-3.2,4.5C52.8,307.6,50.8,306.2,50.4,304.1z M62.9,344.7
	c-1.9,0.3-3.6-0.9-3.9-2.8c-0.3-1.9,0.9-3.6,2.8-3.9c1.9-0.3,3.6,0.9,3.9,2.8C66,342.7,64.8,344.4,62.9,344.7z M91.9,326
	c-1.9,0.3-3.6-0.9-3.9-2.8c-0.3-1.9,0.9-3.6,2.8-3.9c1.9-0.3,3.6,0.9,3.9,2.8C95,323.9,93.7,325.7,91.9,326z M98.6,299.9
	c-2.6,0.4-5-1.3-5.4-3.9c-0.4-2.6,1.3-5,3.9-5.4c2.6-0.4,5,1.3,5.4,3.9C102.9,297,101.2,299.4,98.6,299.9z M136,319.9
	c-2.1,0.4-4.2-1.1-4.5-3.2c-0.4-2.1,1.1-4.2,3.2-4.5c2.1-0.4,4.2,1.1,4.5,3.2C139.6,317.5,138.2,319.5,136,319.9z"/>
<path fill="#E02230" d="M172.3,291.8c-4.2-6.4-10.5-7.5-17.2-6.2c7.1,7.3,13,16.1,17.1,25.8C175.9,305.2,176.8,298.7,172.3,291.8z"
	/>
<path fill="#E02230" d="M6.9,318.5c-2.2,8.8-0.2,15.2,5.5,21.3c1.4-12.2,5-24.1,10.8-35C15.6,305.8,9.1,309.5,6.9,318.5z"/>
<path fill="#E02230" d="M109.4,263.3c-2.3-2.7-4.1-5.3-7.2-7.4c-3.5-2.4-7.6-3.7-11.9-4c-8.1-0.7-16.5,1.6-23.2,6.4
	c-4.1,2.9-7.4,6.7-9.9,11.1c-0.8,1.4-1.4,2.8-2,4.3c9.1-4.9,19-8.2,28.8-9.6C92.4,262.7,100.9,262.4,109.4,263.3z"/>
<g>
	<path fill="#22E050" d="M150.9,281.6c1.1-0.3,2.2-0.6,3.3-0.8c-0.1-0.2-0.3-0.4-0.4-0.6c-2.5-3.9-3.9-7.5-8.1-9.9
		c-2.7-1.5-5.8-2.4-8.2-4.3c-1.5-1.2-2.7-2.9-4.3-4.1c-3.2-2.6-7.5-1.6-11.2-1.3c-3.1,0.3-5.5-0.1-8.2-1.7c-1-0.6-1.9-1.2-2.9-1.7
		c2.1,2.2,3.9,4.6,5.7,7.3C129.7,267.1,141.4,273.1,150.9,281.6z"/>
	<path fill="#22E050" d="M177.4,311.1c-0.4,0.9-0.9,1.7-1.5,2.5c-0.3,0.5-1,1.6-1.7,2.5c1.4,3.4,2.8,7.2,3.8,11c0,0,0-0.1,0-0.1
		c1.2-4.2,1.9-8.7,0.6-13C178.4,313,178,312,177.4,311.1z"/>
	<path fill="#22E050" d="M5.3,341.7c-0.7,2.4-1.2,4.9-0.7,7.3c0.5,2.4,2.1,3.8,4.2,4.8c1.1,0.5,2,1,3,1.6c-0.3-3.5-0.2-7.1,0-10.4
		c-2.3-1.6-4.3-3.6-5.8-5.8C5.8,340,5.6,340.8,5.3,341.7z"/>
	<path fill="#22E050" d="M26.2,299.5C32.3,290,41,282,50.9,276c0.2-2.9,1.1-5.8,2.4-8.5c-0.8,0.5-1.3,1-1.5,1.2
		c-1.2,1.5-2.6,3.6-4.5,4.5c-4.5,2.2-9.4,0.8-13,5.1c-1.4,1.7-2.3,3.7-3.1,5.7c-1.5,3.6-2.2,7.4-5.9,9.2c-3,1.4-6.8,2.4-8.6,5.5
		c-0.6,1-0.9,2.1-1.1,3.2C18.9,300.4,22.5,299.7,26.2,299.5z"/>
</g>
</svg>
